<mxfile>
    <diagram id="y0169RmewVjI8FdbrE21" name="Page-1">
        <mxGraphModel dx="3440" dy="2306" grid="1" gridSize="10" guides="1" tooltips="1" connect="1" arrows="1" fold="1" page="1" pageScale="1" pageWidth="1169" pageHeight="827" math="1" shadow="0">
            <root>
                <mxCell id="0"/>
                <mxCell id="1" parent="0"/>
                <mxCell id="2" value="" style="edgeStyle=none;rounded=0;jumpStyle=none;html=1;shadow=0;labelBackgroundColor=none;startArrow=none;startFill=0;endArrow=classic;endFill=1;jettySize=auto;orthogonalLoop=1;strokeColor=#2F5B7C;strokeWidth=3;fontFamily=Helvetica;fontSize=16;fontColor=#23445D;spacing=5;" parent="1" source="6" target="21" edge="1">
                    <mxGeometry relative="1" as="geometry"/>
                </mxCell>
                <mxCell id="3" value="" style="edgeStyle=none;rounded=0;jumpStyle=none;html=1;shadow=0;labelBackgroundColor=none;startArrow=none;startFill=0;endArrow=classic;endFill=1;jettySize=auto;orthogonalLoop=1;strokeColor=#2F5B7C;strokeWidth=3;fontFamily=Helvetica;fontSize=16;fontColor=#23445D;spacing=5;" parent="1" source="6" target="28" edge="1">
                    <mxGeometry relative="1" as="geometry"/>
                </mxCell>
                <mxCell id="5" value="" style="edgeStyle=none;rounded=0;jumpStyle=none;html=1;shadow=0;labelBackgroundColor=none;startArrow=none;startFill=0;endArrow=classic;endFill=1;jettySize=auto;orthogonalLoop=1;strokeColor=#2F5B7C;strokeWidth=3;fontFamily=Helvetica;fontSize=16;fontColor=#23445D;spacing=5;" parent="1" source="6" target="10" edge="1">
                    <mxGeometry relative="1" as="geometry"/>
                </mxCell>
                <mxCell id="6" value="Gases" style="rounded=1;whiteSpace=wrap;html=1;shadow=0;labelBackgroundColor=none;strokeColor=none;strokeWidth=3;fillColor=#2F5B7C;fontFamily=Helvetica;fontSize=16;fontColor=#FFFFFF;align=center;fontStyle=1;spacing=5;arcSize=7;perimeterSpacing=2;" parent="1" vertex="1">
                    <mxGeometry x="1112" y="1010" width="150" height="70" as="geometry"/>
                </mxCell>
                <mxCell id="7" value="" style="edgeStyle=none;rounded=1;jumpStyle=none;html=1;shadow=0;labelBackgroundColor=none;startArrow=none;startFill=0;jettySize=auto;orthogonalLoop=1;strokeColor=#E85642;strokeWidth=3;fontFamily=Helvetica;fontSize=14;fontColor=#FFFFFF;spacing=5;fontStyle=1;fillColor=#b0e3e6;entryX=1;entryY=1;entryDx=0;entryDy=0;exitX=0;exitY=0;exitDx=0;exitDy=0;" parent="1" source="10" target="56" edge="1">
                    <mxGeometry relative="1" as="geometry">
                        <mxPoint x="793.6412213740459" y="946" as="targetPoint"/>
                    </mxGeometry>
                </mxCell>
                <mxCell id="8" value="" style="edgeStyle=none;rounded=1;jumpStyle=none;html=1;shadow=0;labelBackgroundColor=none;startArrow=none;startFill=0;jettySize=auto;orthogonalLoop=1;strokeColor=#E85642;strokeWidth=3;fontFamily=Helvetica;fontSize=14;fontColor=#FFFFFF;spacing=5;fontStyle=1;fillColor=#b0e3e6;entryX=1;entryY=0.5;entryDx=0;entryDy=0;exitX=0;exitY=0.25;exitDx=0;exitDy=0;" parent="1" source="10" target="62" edge="1">
                    <mxGeometry relative="1" as="geometry">
                        <mxPoint x="783" y="1045" as="targetPoint"/>
                    </mxGeometry>
                </mxCell>
                <mxCell id="10" value="Kinetic Theory of Gases" style="rounded=1;whiteSpace=wrap;html=1;shadow=0;labelBackgroundColor=none;strokeColor=none;strokeWidth=3;fillColor=#e85642;fontFamily=Helvetica;fontSize=14;fontColor=#FFFFFF;align=center;spacing=5;fontStyle=1;arcSize=7;perimeterSpacing=2;" parent="1" vertex="1">
                    <mxGeometry x="832" y="1015" width="150" height="60" as="geometry"/>
                </mxCell>
                <mxCell id="21" value="Concepts" style="rounded=1;whiteSpace=wrap;html=1;shadow=0;labelBackgroundColor=none;strokeColor=none;strokeWidth=3;fillColor=#F08705;fontFamily=Helvetica;fontSize=14;fontColor=#FFFFFF;align=center;spacing=5;fontStyle=1;arcSize=7;perimeterSpacing=2;" parent="1" vertex="1">
                    <mxGeometry x="1112" y="875" width="150" height="60" as="geometry"/>
                </mxCell>
                <mxCell id="23" value="" style="edgeStyle=none;rounded=0;jumpStyle=none;html=1;shadow=0;labelBackgroundColor=none;startArrow=none;startFill=0;endArrow=classic;endFill=1;jettySize=auto;orthogonalLoop=1;strokeColor=#F08705;strokeWidth=3;fontFamily=Helvetica;fontSize=14;fontColor=#FFFFFF;spacing=5;entryX=0.5;entryY=1;entryDx=0;entryDy=0;" parent="1" source="21" target="77" edge="1">
                    <mxGeometry relative="1" as="geometry">
                        <mxPoint x="1315.8888888888891" y="802" as="targetPoint"/>
                    </mxGeometry>
                </mxCell>
                <mxCell id="27" value="" style="edgeStyle=none;rounded=0;jumpStyle=none;html=1;shadow=0;labelBackgroundColor=none;startArrow=none;startFill=0;endArrow=classic;endFill=1;jettySize=auto;orthogonalLoop=1;strokeColor=#F08705;strokeWidth=3;fontFamily=Helvetica;fontSize=14;fontColor=#FFFFFF;spacing=5;entryX=0.5;entryY=1;entryDx=0;entryDy=0;" parent="1" source="21" target="93" edge="1">
                    <mxGeometry relative="1" as="geometry">
                        <mxPoint x="1058.1111111111113" y="802" as="targetPoint"/>
                    </mxGeometry>
                </mxCell>
                <mxCell id="28" value="Gas Laws" style="rounded=1;whiteSpace=wrap;html=1;shadow=0;labelBackgroundColor=none;strokeColor=none;strokeWidth=3;fillColor=#12aab5;fontFamily=Helvetica;fontSize=14;fontColor=#FFFFFF;align=center;spacing=5;fontStyle=1;arcSize=7;perimeterSpacing=2;" parent="1" vertex="1">
                    <mxGeometry x="1412" y="1015" width="150" height="60" as="geometry"/>
                </mxCell>
                <mxCell id="30" value="" style="edgeStyle=none;rounded=1;jumpStyle=none;html=1;shadow=0;labelBackgroundColor=none;startArrow=none;startFill=0;jettySize=auto;orthogonalLoop=1;strokeColor=#12AAB5;strokeWidth=3;fontFamily=Helvetica;fontSize=14;fontColor=#FFFFFF;spacing=5;fontStyle=1;fillColor=#b0e3e6;entryX=0;entryY=0;entryDx=0;entryDy=0;exitX=0.75;exitY=1;exitDx=0;exitDy=0;" parent="1" source="28" target="81" edge="1">
                    <mxGeometry relative="1" as="geometry">
                        <mxPoint x="1548.5827338129493" y="1152" as="targetPoint"/>
                    </mxGeometry>
                </mxCell>
                <mxCell id="32" value="" style="edgeStyle=none;rounded=1;jumpStyle=none;html=1;shadow=0;labelBackgroundColor=none;startArrow=none;startFill=0;jettySize=auto;orthogonalLoop=1;strokeColor=#12AAB5;strokeWidth=3;fontFamily=Helvetica;fontSize=14;fontColor=#FFFFFF;spacing=5;fontStyle=1;fillColor=#b0e3e6;entryX=0;entryY=0.5;entryDx=0;entryDy=0;" parent="1" source="28" target="44" edge="1">
                    <mxGeometry relative="1" as="geometry">
                        <mxPoint x="1620" y="1076.0333333333333" as="targetPoint"/>
                    </mxGeometry>
                </mxCell>
                <mxCell id="34" value="" style="edgeStyle=none;rounded=1;jumpStyle=none;html=1;shadow=0;labelBackgroundColor=none;startArrow=none;startFill=0;jettySize=auto;orthogonalLoop=1;strokeColor=#12AAB5;strokeWidth=3;fontFamily=Helvetica;fontSize=14;fontColor=#FFFFFF;spacing=5;fontStyle=1;fillColor=#b0e3e6;entryX=0;entryY=0.5;entryDx=0;entryDy=0;exitX=1;exitY=0.75;exitDx=0;exitDy=0;" parent="1" source="28" target="41" edge="1">
                    <mxGeometry relative="1" as="geometry">
                        <mxPoint x="1620" y="1006.3666666666668" as="targetPoint"/>
                        <mxPoint x="1590" y="1070" as="sourcePoint"/>
                    </mxGeometry>
                </mxCell>
                <mxCell id="36" value="" style="edgeStyle=none;rounded=1;jumpStyle=none;html=1;shadow=0;labelBackgroundColor=none;startArrow=none;startFill=0;jettySize=auto;orthogonalLoop=1;strokeColor=#12AAB5;strokeWidth=3;fontFamily=Helvetica;fontSize=14;fontColor=#FFFFFF;spacing=5;fontStyle=1;fillColor=#b0e3e6;entryX=0;entryY=1;entryDx=0;entryDy=0;exitX=1;exitY=0;exitDx=0;exitDy=0;" parent="1" source="28" target="37" edge="1">
                    <mxGeometry relative="1" as="geometry">
                        <mxPoint x="1548.843971631206" y="936" as="targetPoint"/>
                    </mxGeometry>
                </mxCell>
                <mxCell id="37" value="Boyle's Law" style="swimlane;gradientColor=none;strokeColor=#61C6CE;startSize=23;fillColor=#00BFBF;fontColor=#000000;" parent="1" vertex="1">
                    <mxGeometry x="1750" y="290" width="319" height="170" as="geometry"/>
                </mxCell>
                <mxCell id="38" value="\[P\propto\frac{1}{V}\quad(m,\ T\ \mathrm{is\ constant})\]" style="rounded=1;whiteSpace=wrap;html=1;shadow=0;labelBackgroundColor=none;strokeColor=none;strokeWidth=3;fillColor=#61c6ce;fontFamily=Helvetica;fontSize=14;align=center;spacing=5;fontStyle=0;arcSize=7;perimeterSpacing=2;fontColor=#000000;" parent="37" vertex="1">
                    <mxGeometry x="9" y="30" width="301" height="50" as="geometry"/>
                </mxCell>
                <mxCell id="40" value="\[PV=constant\] \[\Rightarrow P_1V_1=p_2V_2\]" style="rounded=1;whiteSpace=wrap;html=1;shadow=0;labelBackgroundColor=none;strokeColor=none;strokeWidth=3;fillColor=#61c6ce;fontFamily=Helvetica;fontSize=14;align=center;spacing=5;fontStyle=0;arcSize=7;perimeterSpacing=2;fontColor=#000000;" parent="37" vertex="1">
                    <mxGeometry x="9" y="90" width="301" height="70" as="geometry"/>
                </mxCell>
                <mxCell id="41" value="Equation of State" style="swimlane;gradientColor=none;strokeColor=#61C6CE;startSize=23;fillColor=#00BFBF;fontColor=#000000;" parent="1" vertex="1">
                    <mxGeometry x="1933" y="930" width="319" height="210" as="geometry"/>
                </mxCell>
                <mxCell id="42" value="\[\frac{P_1V_1}{T_1}=\frac{P_2V_2}{T_2}=constant\]" style="rounded=1;whiteSpace=wrap;html=1;shadow=0;labelBackgroundColor=none;strokeColor=none;strokeWidth=3;fillColor=#61c6ce;fontFamily=Helvetica;fontSize=14;align=center;spacing=5;fontStyle=0;arcSize=7;perimeterSpacing=2;fontColor=#000000;" parent="41" vertex="1">
                    <mxGeometry x="9" y="30" width="301" height="50" as="geometry"/>
                </mxCell>
                <mxCell id="43" value="&lt;div&gt;\[\frac{PV}{T}=nR\quad(R=\mathrm{molar\ gas\ constant})\]&lt;/div&gt;" style="rounded=1;whiteSpace=wrap;html=1;shadow=0;labelBackgroundColor=none;strokeColor=none;strokeWidth=3;fillColor=#61c6ce;fontFamily=Helvetica;fontSize=14;align=center;spacing=5;fontStyle=0;arcSize=7;perimeterSpacing=2;fontColor=#000000;" parent="41" vertex="1">
                    <mxGeometry x="9" y="90" width="301" height="50" as="geometry"/>
                </mxCell>
                <mxCell id="100" value="&lt;div&gt;\[\Rightarrow PV=nRT=mR'T\quad(R'=\frac{R}{M})\]&lt;/div&gt;" style="rounded=1;whiteSpace=wrap;html=1;shadow=0;labelBackgroundColor=none;strokeColor=none;strokeWidth=3;fillColor=#61c6ce;fontFamily=Helvetica;fontSize=14;align=center;spacing=5;fontStyle=0;arcSize=7;perimeterSpacing=2;fontColor=#000000;" vertex="1" parent="41">
                    <mxGeometry x="9" y="150" width="301" height="50" as="geometry"/>
                </mxCell>
                <mxCell id="44" value="Connected Gas Container" style="swimlane;gradientColor=none;strokeColor=#61C6CE;startSize=23;fillColor=#00BFBF;fontColor=#000000;" parent="1" vertex="1">
                    <mxGeometry x="1860" y="1160" width="352" height="130" as="geometry"/>
                </mxCell>
                <mxCell id="45" value="Total number of moles in the containers are same." style="rounded=1;whiteSpace=wrap;html=1;shadow=0;labelBackgroundColor=none;strokeColor=none;strokeWidth=3;fillColor=#61c6ce;fontFamily=Helvetica;fontSize=14;align=center;spacing=5;fontStyle=0;arcSize=7;perimeterSpacing=2;fontColor=#000000;" parent="44" vertex="1">
                    <mxGeometry x="9" y="30" width="331" height="40" as="geometry"/>
                </mxCell>
                <mxCell id="46" value="\[n_1 + n_2 = n_1'+n_2'\]" style="rounded=1;whiteSpace=wrap;html=1;shadow=0;labelBackgroundColor=none;strokeColor=none;strokeWidth=3;fillColor=#61c6ce;fontFamily=Helvetica;fontSize=14;align=center;spacing=5;fontStyle=0;arcSize=7;perimeterSpacing=2;fontColor=#000000;" parent="44" vertex="1">
                    <mxGeometry x="9" y="80" width="331" height="44" as="geometry"/>
                </mxCell>
                <mxCell id="56" value="Assumptions" style="swimlane;gradientColor=none;startSize=23;fontColor=#000000;fillColor=#DE7A73;strokeColor=#DE7A73;" parent="1" vertex="1">
                    <mxGeometry x="160" y="50" width="449" height="420" as="geometry"/>
                </mxCell>
                <mxCell id="57" value="Gases consist of discrete particles called molecules. For a given gas all the molecules are identical." style="rounded=1;whiteSpace=wrap;html=1;shadow=0;labelBackgroundColor=none;strokeColor=none;strokeWidth=3;fontFamily=Helvetica;fontSize=14;align=center;spacing=5;fontStyle=0;arcSize=7;perimeterSpacing=2;fontColor=#000000;fillColor=#f08e81;" parent="56" vertex="1">
                    <mxGeometry x="9" y="30" width="431" height="50" as="geometry"/>
                </mxCell>
                <mxCell id="117" value="Except during collision, the attraction between the molecules is negligible." style="rounded=1;whiteSpace=wrap;html=1;shadow=0;labelBackgroundColor=none;strokeColor=none;strokeWidth=3;fontFamily=Helvetica;fontSize=14;align=center;spacing=5;fontStyle=0;arcSize=7;perimeterSpacing=2;fontColor=#000000;fillColor=#f08e81;" vertex="1" parent="56">
                    <mxGeometry x="9" y="90" width="431" height="50" as="geometry"/>
                </mxCell>
                <mxCell id="118" value="The volume occupied by the gas molecules is negligible compare with the volume occupied by the gas.(i.e. the volume of the container)&amp;nbsp;" style="rounded=1;whiteSpace=wrap;html=1;shadow=0;labelBackgroundColor=none;strokeColor=none;strokeWidth=3;fontFamily=Helvetica;fontSize=14;align=center;spacing=5;fontStyle=0;arcSize=7;perimeterSpacing=2;fontColor=#000000;fillColor=#f08e81;" vertex="1" parent="56">
                    <mxGeometry x="9" y="150" width="431" height="60" as="geometry"/>
                </mxCell>
                <mxCell id="119" value="Molecules are in continual random motion. Except during collision, molecules are moving along a straight line with constant speed. Collisions with the walls of the container give rise to pressure." style="rounded=1;whiteSpace=wrap;html=1;shadow=0;labelBackgroundColor=none;strokeColor=none;strokeWidth=3;fontFamily=Helvetica;fontSize=14;align=center;spacing=5;fontStyle=0;arcSize=7;perimeterSpacing=2;fontColor=#000000;fillColor=#f08e81;" vertex="1" parent="56">
                    <mxGeometry x="9" y="220" width="431" height="60" as="geometry"/>
                </mxCell>
                <mxCell id="121" value="Molecules are like perfectly elastic spheres and thus the collisions between molecules are perfectly elastic, i.e. kinetic energy and momentum is conserved." style="rounded=1;whiteSpace=wrap;html=1;shadow=0;labelBackgroundColor=none;strokeColor=none;strokeWidth=3;fontFamily=Helvetica;fontSize=14;align=center;spacing=5;fontStyle=0;arcSize=7;perimeterSpacing=2;fontColor=#000000;fillColor=#f08e81;" vertex="1" parent="56">
                    <mxGeometry x="9" y="290" width="431" height="60" as="geometry"/>
                </mxCell>
                <mxCell id="120" value="The duration of a collision is negligible compared with the time elapsing between collisions." style="rounded=1;whiteSpace=wrap;html=1;shadow=0;labelBackgroundColor=none;strokeColor=none;strokeWidth=3;fontFamily=Helvetica;fontSize=14;align=center;spacing=5;fontStyle=0;arcSize=7;perimeterSpacing=2;fontColor=#000000;fillColor=#f08e81;" vertex="1" parent="56">
                    <mxGeometry x="9" y="360" width="431" height="50" as="geometry"/>
                </mxCell>
                <mxCell id="59" value="Pressure and R.M.S. speed" style="swimlane;gradientColor=none;startSize=23;fontColor=#000000;fillColor=#DE7A73;strokeColor=#DE7A73;" parent="1" vertex="1">
                    <mxGeometry x="160" y="500" width="339" height="180" as="geometry"/>
                </mxCell>
                <mxCell id="60" value="\[P=\frac{1}{3}\rho \overline{c^2}\quad(\overline{c^2}\ is\ mean\ squared\ speed)\]" style="rounded=1;whiteSpace=wrap;html=1;shadow=0;labelBackgroundColor=none;strokeColor=none;strokeWidth=3;fontFamily=Helvetica;fontSize=14;align=center;spacing=5;fontStyle=0;arcSize=7;perimeterSpacing=2;fontColor=#000000;fillColor=#f08e81;" parent="59" vertex="1">
                    <mxGeometry x="9" y="30" width="321" height="50" as="geometry"/>
                </mxCell>
                <mxCell id="61" value="\[\Rightarrow C_{rms}=\sqrt{\overline{c^2}}=\sqrt{\frac{3P}{\rho}}=\sqrt{\frac{3RT}{M}}\]&amp;nbsp;" style="rounded=1;whiteSpace=wrap;html=1;shadow=0;labelBackgroundColor=none;strokeColor=none;strokeWidth=3;fontFamily=Helvetica;fontSize=14;align=center;spacing=5;fontStyle=0;arcSize=7;perimeterSpacing=2;fontColor=#000000;fillColor=#f08e81;" parent="59" vertex="1">
                    <mxGeometry x="9" y="90" width="321" height="80" as="geometry"/>
                </mxCell>
                <mxCell id="62" value="Temperature and Kinetic Energy" style="swimlane;gradientColor=none;startSize=23;fontColor=#000000;fillColor=#DE7A73;strokeColor=#DE7A73;" parent="1" vertex="1">
                    <mxGeometry x="70" y="720" width="480" height="230" as="geometry"/>
                </mxCell>
                <mxCell id="65" value="Average Translational Kinetic Energy" style="swimlane;gradientColor=none;startSize=23;fontColor=#000000;fillColor=#DE7A73;strokeColor=#DE7A73;" parent="62" vertex="1">
                    <mxGeometry x="10" y="30" width="460" height="90" as="geometry"/>
                </mxCell>
                <mxCell id="66" value="\[\frac{1}{2}m\overline{c^2}=\frac{3}{2}\frac{R}{N_A}T=\frac{3}{2}kT\quad(k\ \mathrm{is\ Boltzmann's\ constant})\]" style="rounded=1;whiteSpace=wrap;html=1;shadow=0;labelBackgroundColor=none;strokeColor=none;strokeWidth=3;fontFamily=Helvetica;fontSize=14;align=center;spacing=5;fontStyle=0;arcSize=7;perimeterSpacing=2;fontColor=#000000;fillColor=#f08e81;" parent="65" vertex="1">
                    <mxGeometry x="9" y="30" width="441" height="50" as="geometry"/>
                </mxCell>
                <mxCell id="122" value="Total Translational Kinetic Energy" style="swimlane;gradientColor=none;startSize=23;fontColor=#000000;fillColor=#DE7A73;strokeColor=#DE7A73;" vertex="1" parent="62">
                    <mxGeometry x="9.5" y="130" width="460" height="90" as="geometry"/>
                </mxCell>
                <mxCell id="123" value="\[\frac{1}{2}Nm\overline{c^2}=\frac{3}{2}NkT=\frac{3}{2}nRT\quad(k\ \mathrm{is\ Boltzmann's\ constant})\]" style="rounded=1;whiteSpace=wrap;html=1;shadow=0;labelBackgroundColor=none;strokeColor=none;strokeWidth=3;fontFamily=Helvetica;fontSize=14;align=center;spacing=5;fontStyle=0;arcSize=7;perimeterSpacing=2;fontColor=#000000;fillColor=#f08e81;" vertex="1" parent="122">
                    <mxGeometry x="9" y="30" width="441" height="50" as="geometry"/>
                </mxCell>
                <mxCell id="77" value="Ideal Gas" style="swimlane;gradientColor=none;startSize=23;fontColor=#000000;fillColor=#F0A729;strokeColor=#F0A729;" parent="1" vertex="1">
                    <mxGeometry x="1210" y="500" width="420" height="220" as="geometry"/>
                </mxCell>
                <mxCell id="78" value="A theotetical concept of a gas which would obey the gas laws exactly." style="rounded=1;whiteSpace=wrap;html=1;shadow=0;labelBackgroundColor=none;strokeColor=none;strokeWidth=3;fontFamily=Helvetica;fontSize=14;align=center;spacing=5;fontStyle=0;arcSize=7;perimeterSpacing=2;fontColor=#000000;fillColor=#f5af58;" parent="77" vertex="1">
                    <mxGeometry x="9" y="30" width="401" height="60" as="geometry"/>
                </mxCell>
                <mxCell id="79" value="&lt;div&gt;Consists of perfectly elastic molecules&lt;/div&gt;" style="rounded=1;whiteSpace=wrap;html=1;shadow=0;labelBackgroundColor=none;strokeColor=none;strokeWidth=3;fontFamily=Helvetica;fontSize=14;align=center;spacing=5;fontStyle=0;arcSize=7;perimeterSpacing=2;fontColor=#000000;fillColor=#F5AF58;" parent="77" vertex="1">
                    <mxGeometry x="9" y="100" width="401" height="40" as="geometry"/>
                </mxCell>
                <mxCell id="104" value="&lt;div&gt;Volume occupied by actual molecules and force of attraction between them are negligible.&lt;/div&gt;" style="rounded=1;whiteSpace=wrap;html=1;shadow=0;labelBackgroundColor=none;strokeColor=none;strokeWidth=3;fontFamily=Helvetica;fontSize=14;align=center;spacing=5;fontStyle=0;arcSize=7;perimeterSpacing=2;fontColor=#000000;fillColor=#F5AF58;" vertex="1" parent="77">
                    <mxGeometry x="9" y="150" width="401" height="60" as="geometry"/>
                </mxCell>
                <mxCell id="81" value="Dalton's Law of Partial Pressure" style="swimlane;gradientColor=none;strokeColor=#61C6CE;startSize=23;fillColor=#00BFBF;fontColor=#000000;" parent="1" vertex="1">
                    <mxGeometry x="1750" y="1330" width="239" height="210" as="geometry"/>
                </mxCell>
                <mxCell id="54" value="\[P_A=\frac{n_A}{V}RT\] \[P_B=\frac{n_B}{V}RT\] \[P_{total}=P_A+P_B\]" style="rounded=1;whiteSpace=wrap;html=1;shadow=0;labelBackgroundColor=none;strokeColor=none;strokeWidth=3;fillColor=#61c6ce;fontFamily=Helvetica;fontSize=14;align=center;spacing=5;fontStyle=0;arcSize=7;perimeterSpacing=2;fontColor=#000000;" parent="81" vertex="1">
                    <mxGeometry x="9" y="30" width="221" height="170" as="geometry"/>
                </mxCell>
                <mxCell id="86" value="" style="edgeStyle=none;rounded=1;jumpStyle=none;html=1;shadow=0;labelBackgroundColor=none;startArrow=none;startFill=0;jettySize=auto;orthogonalLoop=1;strokeColor=#E85642;strokeWidth=3;fontFamily=Helvetica;fontSize=14;fontColor=#FFFFFF;spacing=5;fontStyle=1;fillColor=#b0e3e6;entryX=1;entryY=0.5;entryDx=0;entryDy=0;" parent="1" target="59" edge="1">
                    <mxGeometry relative="1" as="geometry">
                        <mxPoint x="830" y="1010" as="sourcePoint"/>
                        <mxPoint x="803.6412213740459" y="956" as="targetPoint"/>
                    </mxGeometry>
                </mxCell>
                <mxCell id="93" value="Saturated And Unsaturated Vapours" style="swimlane;gradientColor=none;startSize=23;fontColor=#000000;fillColor=#F0A729;strokeColor=#F0A729;" parent="1" vertex="1">
                    <mxGeometry x="760" y="188" width="430" height="532" as="geometry"/>
                </mxCell>
                <mxCell id="68" value="Unsaturated Vapour" style="swimlane;gradientColor=none;startSize=23;fontColor=#000000;fillColor=#F0A729;strokeColor=#F0A729;" parent="93" vertex="1">
                    <mxGeometry x="10" y="30" width="410" height="150" as="geometry"/>
                </mxCell>
                <mxCell id="69" value="A vapour not in contact with its own liquid in a closed space." style="rounded=1;whiteSpace=wrap;html=1;shadow=0;labelBackgroundColor=none;strokeColor=none;strokeWidth=3;fontFamily=Helvetica;fontSize=14;align=center;spacing=5;fontStyle=0;arcSize=7;perimeterSpacing=2;fontColor=#000000;fillColor=#f5af58;" parent="68" vertex="1">
                    <mxGeometry x="9" y="30" width="391" height="50" as="geometry"/>
                </mxCell>
                <mxCell id="70" value="i.e. A mixture of air and water vapour in a flask without water present." style="rounded=1;whiteSpace=wrap;html=1;shadow=0;labelBackgroundColor=none;strokeColor=none;strokeWidth=3;fontFamily=Helvetica;fontSize=14;align=center;spacing=5;fontStyle=0;arcSize=7;perimeterSpacing=2;fontColor=#000000;fillColor=#F5AF58;" parent="68" vertex="1">
                    <mxGeometry x="9" y="90" width="391" height="50" as="geometry"/>
                </mxCell>
                <mxCell id="87" value="Saturated Vapour" style="swimlane;gradientColor=none;startSize=23;fontColor=#000000;fillColor=#F0A729;strokeColor=#F0A729;" parent="93" vertex="1">
                    <mxGeometry x="9.5" y="190" width="410" height="170" as="geometry"/>
                </mxCell>
                <mxCell id="88" value="A vapour in contact with, or in equilibrium with its own liquid in a closed space." style="rounded=1;whiteSpace=wrap;html=1;shadow=0;labelBackgroundColor=none;strokeColor=none;strokeWidth=3;fontFamily=Helvetica;fontSize=14;align=center;spacing=5;fontStyle=0;arcSize=7;perimeterSpacing=2;fontColor=#000000;fillColor=#f5af58;" parent="87" vertex="1">
                    <mxGeometry x="9" y="30" width="391" height="50" as="geometry"/>
                </mxCell>
                <mxCell id="89" value="&lt;div&gt;i.e. A flask containing air and some water at \(20^\circ C\), the water vapour above water is saturated vapour at&amp;nbsp;&lt;/div&gt;\(20^\circ C\)." style="rounded=1;whiteSpace=wrap;html=1;shadow=0;labelBackgroundColor=none;strokeColor=none;strokeWidth=3;fontFamily=Helvetica;fontSize=14;align=center;spacing=5;fontStyle=0;arcSize=7;perimeterSpacing=2;fontColor=#000000;fillColor=#F5AF58;" parent="87" vertex="1">
                    <mxGeometry x="9" y="90" width="391" height="70" as="geometry"/>
                </mxCell>
                <mxCell id="106" value="The s.v.p. of a liquid is independent to its volume" style="rounded=1;whiteSpace=wrap;html=1;shadow=0;labelBackgroundColor=none;strokeColor=none;strokeWidth=3;fontFamily=Helvetica;fontSize=14;align=center;spacing=5;fontStyle=0;arcSize=7;perimeterSpacing=2;fontColor=#000000;fillColor=#f5af58;" vertex="1" parent="93">
                    <mxGeometry x="10" y="370" width="410" height="40" as="geometry"/>
                </mxCell>
                <mxCell id="115" value="s.v.p. \(\propto\) tenperature" style="rounded=1;whiteSpace=wrap;html=1;shadow=0;labelBackgroundColor=none;strokeColor=none;strokeWidth=3;fontFamily=Helvetica;fontSize=14;align=center;spacing=5;fontStyle=0;arcSize=7;perimeterSpacing=2;fontColor=#000000;fillColor=#f5af58;" vertex="1" parent="93">
                    <mxGeometry x="10" y="420" width="410" height="40" as="geometry"/>
                </mxCell>
                <mxCell id="116" value="Saturated vapour does not obey gas laws, its volume is constant under constant temperature" style="rounded=1;whiteSpace=wrap;html=1;shadow=0;labelBackgroundColor=none;strokeColor=none;strokeWidth=3;fontFamily=Helvetica;fontSize=14;align=center;spacing=5;fontStyle=0;arcSize=7;perimeterSpacing=2;fontColor=#000000;fillColor=#f5af58;" vertex="1" parent="93">
                    <mxGeometry x="9.5" y="470" width="410" height="50" as="geometry"/>
                </mxCell>
                <mxCell id="94" value="Charles' Law" style="swimlane;gradientColor=none;strokeColor=#61C6CE;startSize=23;fillColor=#00BFBF;fontColor=#000000;" vertex="1" parent="1">
                    <mxGeometry x="1860" y="470" width="319" height="210" as="geometry"/>
                </mxCell>
                <mxCell id="95" value="\[V\propto T\quad(m,\ P\ \mathrm{is\ constant})\]" style="rounded=1;whiteSpace=wrap;html=1;shadow=0;labelBackgroundColor=none;strokeColor=none;strokeWidth=3;fillColor=#61c6ce;fontFamily=Helvetica;fontSize=14;align=center;spacing=5;fontStyle=0;arcSize=7;perimeterSpacing=2;fontColor=#000000;" vertex="1" parent="94">
                    <mxGeometry x="9" y="30" width="301" height="50" as="geometry"/>
                </mxCell>
                <mxCell id="96" value="\[\frac{V}{T}=constant\] \[\Rightarrow \frac{V_1}{T_1}=\frac{V_2}{T_2}\]" style="rounded=1;whiteSpace=wrap;html=1;shadow=0;labelBackgroundColor=none;strokeColor=none;strokeWidth=3;fillColor=#61c6ce;fontFamily=Helvetica;fontSize=14;align=center;spacing=5;fontStyle=0;arcSize=7;perimeterSpacing=2;fontColor=#000000;" vertex="1" parent="94">
                    <mxGeometry x="9" y="90" width="301" height="110" as="geometry"/>
                </mxCell>
                <mxCell id="97" value="Pressure Law" style="swimlane;gradientColor=none;strokeColor=#61C6CE;startSize=23;fillColor=#00BFBF;fontColor=#000000;" vertex="1" parent="1">
                    <mxGeometry x="1920" y="700" width="319" height="210" as="geometry"/>
                </mxCell>
                <mxCell id="98" value="\[P\propto T\quad(m,\ P\ \mathrm{is\ constant})\]" style="rounded=1;whiteSpace=wrap;html=1;shadow=0;labelBackgroundColor=none;strokeColor=none;strokeWidth=3;fillColor=#61c6ce;fontFamily=Helvetica;fontSize=14;align=center;spacing=5;fontStyle=0;arcSize=7;perimeterSpacing=2;fontColor=#000000;" vertex="1" parent="97">
                    <mxGeometry x="9" y="30" width="301" height="50" as="geometry"/>
                </mxCell>
                <mxCell id="99" value="\[\frac{P}{T}=constant\] \[\Rightarrow \frac{P_1}{T_1}=\frac{P_2}{T_2}\]" style="rounded=1;whiteSpace=wrap;html=1;shadow=0;labelBackgroundColor=none;strokeColor=none;strokeWidth=3;fillColor=#61c6ce;fontFamily=Helvetica;fontSize=14;align=center;spacing=5;fontStyle=0;arcSize=7;perimeterSpacing=2;fontColor=#000000;" vertex="1" parent="97">
                    <mxGeometry x="9" y="90" width="301" height="110" as="geometry"/>
                </mxCell>
                <mxCell id="101" value="" style="edgeStyle=none;rounded=1;jumpStyle=none;html=1;shadow=0;labelBackgroundColor=none;startArrow=none;startFill=0;jettySize=auto;orthogonalLoop=1;strokeColor=#12AAB5;strokeWidth=3;fontFamily=Helvetica;fontSize=14;fontColor=#FFFFFF;spacing=5;fontStyle=1;fillColor=#b0e3e6;entryX=0;entryY=0.5;entryDx=0;entryDy=0;exitX=1;exitY=0.5;exitDx=0;exitDy=0;" edge="1" parent="1" source="28" target="97">
                    <mxGeometry relative="1" as="geometry">
                        <mxPoint x="1950.0000000000005" y="1015" as="targetPoint"/>
                        <mxPoint x="1574" y="1048.2008830022078" as="sourcePoint"/>
                    </mxGeometry>
                </mxCell>
                <mxCell id="102" value="" style="edgeStyle=none;rounded=1;jumpStyle=none;html=1;shadow=0;labelBackgroundColor=none;startArrow=none;startFill=0;jettySize=auto;orthogonalLoop=1;strokeColor=#12AAB5;strokeWidth=3;fontFamily=Helvetica;fontSize=14;fontColor=#FFFFFF;spacing=5;fontStyle=1;fillColor=#b0e3e6;exitX=1;exitY=0.25;exitDx=0;exitDy=0;entryX=0;entryY=0.5;entryDx=0;entryDy=0;" edge="1" parent="1" source="28" target="94">
                    <mxGeometry relative="1" as="geometry">
                        <mxPoint x="1820" y="640" as="targetPoint"/>
                        <mxPoint x="1584" y="1058.2008830022078" as="sourcePoint"/>
                    </mxGeometry>
                </mxCell>
                <mxCell id="124" value="Degree of Freedom, f" style="swimlane;gradientColor=none;startSize=23;fontColor=#000000;fillColor=#DE7A73;strokeColor=#DE7A73;" vertex="1" parent="1">
                    <mxGeometry x="110" y="990" width="420" height="330" as="geometry"/>
                </mxCell>
                <mxCell id="125" value="Monoatomic molecules" style="swimlane;gradientColor=none;startSize=23;fontColor=#000000;fillColor=#DE7A73;strokeColor=#DE7A73;" vertex="1" parent="124">
                    <mxGeometry x="10" y="30" width="400" height="90" as="geometry"/>
                </mxCell>
                <mxCell id="126" value="3 translational, 0 rotational \(\Rightarrow\) total 3" style="rounded=1;whiteSpace=wrap;html=1;shadow=0;labelBackgroundColor=none;strokeColor=none;strokeWidth=3;fontFamily=Helvetica;fontSize=14;align=center;spacing=5;fontStyle=0;arcSize=7;perimeterSpacing=2;fontColor=#000000;fillColor=#f08e81;" vertex="1" parent="125">
                    <mxGeometry x="9" y="30" width="381" height="50" as="geometry"/>
                </mxCell>
                <mxCell id="129" value="Diatomic molecules" style="swimlane;gradientColor=none;startSize=23;fontColor=#000000;fillColor=#DE7A73;strokeColor=#DE7A73;" vertex="1" parent="124">
                    <mxGeometry x="9.5" y="130" width="400" height="90" as="geometry"/>
                </mxCell>
                <mxCell id="130" value="3 translational, 2 rotational \(\Rightarrow\) total 5" style="rounded=1;whiteSpace=wrap;html=1;shadow=0;labelBackgroundColor=none;strokeColor=none;strokeWidth=3;fontFamily=Helvetica;fontSize=14;align=center;spacing=5;fontStyle=0;arcSize=7;perimeterSpacing=2;fontColor=#000000;fillColor=#f08e81;" vertex="1" parent="129">
                    <mxGeometry x="9" y="30" width="381" height="50" as="geometry"/>
                </mxCell>
                <mxCell id="131" value="Polyatomic molecules" style="swimlane;gradientColor=none;startSize=23;fontColor=#000000;fillColor=#DE7A73;strokeColor=#DE7A73;" vertex="1" parent="124">
                    <mxGeometry x="10" y="230" width="400" height="90" as="geometry"/>
                </mxCell>
                <mxCell id="132" value="3 translational, 3 rotational \(\Rightarrow\) total 6" style="rounded=1;whiteSpace=wrap;html=1;shadow=0;labelBackgroundColor=none;strokeColor=none;strokeWidth=3;fontFamily=Helvetica;fontSize=14;align=center;spacing=5;fontStyle=0;arcSize=7;perimeterSpacing=2;fontColor=#000000;fillColor=#f08e81;" vertex="1" parent="131">
                    <mxGeometry x="9" y="30" width="381" height="50" as="geometry"/>
                </mxCell>
                <mxCell id="133" value="Maxwell's Law of Equipartition of Energy" style="swimlane;gradientColor=none;startSize=23;fontColor=#000000;fillColor=#DE7A73;strokeColor=#DE7A73;" vertex="1" parent="1">
                    <mxGeometry x="192" y="1350" width="640" height="210" as="geometry"/>
                </mxCell>
                <mxCell id="134" value="\[\mathrm{For\ monoatomic\ gas,\ }f=3,\ \mathrm{average\ kinetic\ energy\ of\ one\ molecule}=\frac{3}{2}kT\]" style="rounded=1;whiteSpace=wrap;html=1;shadow=0;labelBackgroundColor=none;strokeColor=none;strokeWidth=3;fontFamily=Helvetica;fontSize=14;align=center;spacing=5;fontStyle=0;arcSize=7;perimeterSpacing=2;fontColor=#000000;fillColor=#f08e81;" vertex="1" parent="133">
                    <mxGeometry x="9" y="30" width="621" height="50" as="geometry"/>
                </mxCell>
                <mxCell id="136" value="\[\mathrm{For\ diatomic\ gas,\ }f=5,\ \mathrm{average\ kinetic\ energy\ of\ one\ molecule}=\frac{5}{2}kT\]" style="rounded=1;whiteSpace=wrap;html=1;shadow=0;labelBackgroundColor=none;strokeColor=none;strokeWidth=3;fontFamily=Helvetica;fontSize=14;align=center;spacing=5;fontStyle=0;arcSize=7;perimeterSpacing=2;fontColor=#000000;fillColor=#f08e81;" vertex="1" parent="133">
                    <mxGeometry x="9" y="90" width="621" height="50" as="geometry"/>
                </mxCell>
                <mxCell id="137" value="\[\mathrm{For\ polyatomic\ gas,\ }f=6,\ \mathrm{average\ kinetic\ energy\ of\ one\ molecule}=\frac{6}{2}kT=3kT\]" style="rounded=1;whiteSpace=wrap;html=1;shadow=0;labelBackgroundColor=none;strokeColor=none;strokeWidth=3;fontFamily=Helvetica;fontSize=14;align=center;spacing=5;fontStyle=0;arcSize=7;perimeterSpacing=2;fontColor=#000000;fillColor=#f08e81;" vertex="1" parent="133">
                    <mxGeometry x="9.5" y="150" width="620.5" height="50" as="geometry"/>
                </mxCell>
                <mxCell id="138" value="Internal Energy of a Gas, U" style="swimlane;gradientColor=none;startSize=23;fontColor=#000000;fillColor=#DE7A73;strokeColor=#DE7A73;" vertex="1" parent="1">
                    <mxGeometry x="940" y="1211" width="560" height="240" as="geometry"/>
                </mxCell>
                <mxCell id="139" value="Internal energy of a system refers to total kinetic and potential energy of molecules of the system." style="rounded=1;whiteSpace=wrap;html=1;shadow=0;labelBackgroundColor=none;strokeColor=none;strokeWidth=3;fontFamily=Helvetica;fontSize=14;align=center;spacing=5;fontStyle=0;arcSize=7;perimeterSpacing=2;fontColor=#000000;fillColor=#f08e81;" vertex="1" parent="138">
                    <mxGeometry x="9" y="30" width="541" height="50" as="geometry"/>
                </mxCell>
                <mxCell id="140" value="For ideal gas, attraction between molecules is negligible, internal energy formed by kinetic energy only." style="rounded=1;whiteSpace=wrap;html=1;shadow=0;labelBackgroundColor=none;strokeColor=none;strokeWidth=3;fontFamily=Helvetica;fontSize=14;align=center;spacing=5;fontStyle=0;arcSize=7;perimeterSpacing=2;fontColor=#000000;fillColor=#f08e81;" vertex="1" parent="138">
                    <mxGeometry x="9" y="90" width="541" height="50" as="geometry"/>
                </mxCell>
                <mxCell id="141" value="\[U\propto T\] \[U = N\times\mathrm{average\ E_k\ of\ one\ molecule}=\frac{f}{2}kT=\frac{f}{2}nRT\quad(Nk=nR)\]" style="rounded=1;whiteSpace=wrap;html=1;shadow=0;labelBackgroundColor=none;strokeColor=none;strokeWidth=3;fontFamily=Helvetica;fontSize=14;align=center;spacing=5;fontStyle=0;arcSize=7;perimeterSpacing=2;fontColor=#000000;fillColor=#f08e81;" vertex="1" parent="138">
                    <mxGeometry x="9.5" y="150" width="540.5" height="80" as="geometry"/>
                </mxCell>
                <mxCell id="142" value="" style="edgeStyle=none;rounded=1;jumpStyle=none;html=1;shadow=0;labelBackgroundColor=none;startArrow=none;startFill=0;jettySize=auto;orthogonalLoop=1;strokeColor=#E85642;strokeWidth=3;fontFamily=Helvetica;fontSize=14;fontColor=#FFFFFF;spacing=5;fontStyle=1;fillColor=#b0e3e6;entryX=1;entryY=0.5;entryDx=0;entryDy=0;exitX=0;exitY=0.5;exitDx=0;exitDy=0;" edge="1" parent="1" source="10" target="124">
                    <mxGeometry relative="1" as="geometry">
                        <mxPoint x="560" y="844.9999999999998" as="targetPoint"/>
                        <mxPoint x="840" y="1039" as="sourcePoint"/>
                    </mxGeometry>
                </mxCell>
                <mxCell id="143" value="" style="edgeStyle=none;rounded=1;jumpStyle=none;html=1;shadow=0;labelBackgroundColor=none;startArrow=none;startFill=0;jettySize=auto;orthogonalLoop=1;strokeColor=#E85642;strokeWidth=3;fontFamily=Helvetica;fontSize=14;fontColor=#FFFFFF;spacing=5;fontStyle=1;fillColor=#b0e3e6;exitX=0;exitY=0.75;exitDx=0;exitDy=0;entryX=0.75;entryY=0;entryDx=0;entryDy=0;" edge="1" parent="1" source="10" target="133">
                    <mxGeometry relative="1" as="geometry">
                        <mxPoint x="660" y="1220" as="targetPoint"/>
                        <mxPoint x="850" y="1049" as="sourcePoint"/>
                    </mxGeometry>
                </mxCell>
                <mxCell id="144" value="" style="edgeStyle=none;rounded=1;jumpStyle=none;html=1;shadow=0;labelBackgroundColor=none;startArrow=none;startFill=0;jettySize=auto;orthogonalLoop=1;strokeColor=#E85642;strokeWidth=3;fontFamily=Helvetica;fontSize=14;fontColor=#FFFFFF;spacing=5;fontStyle=1;fillColor=#b0e3e6;entryX=0;entryY=0;entryDx=0;entryDy=0;exitX=0.25;exitY=1;exitDx=0;exitDy=0;" edge="1" parent="1" source="10" target="138">
                    <mxGeometry relative="1" as="geometry">
                        <mxPoint x="580" y="864.9999999999998" as="targetPoint"/>
                        <mxPoint x="860" y="1059" as="sourcePoint"/>
                    </mxGeometry>
                </mxCell>
            </root>
        </mxGraphModel>
    </diagram>
</mxfile>